<?xml version="1.0" encoding="UTF-8"?>
<svg width="206px" height="84px" viewBox="0 0 206 84" version="1.1" xmlns="http://www.w3.org/2000/svg" xmlns:xlink="http://www.w3.org/1999/xlink">
    <!-- Generator: Sketch 56.3 (81716) - https://sketch.com -->
    <title>Group 2</title>
    <desc>Created with Sketch.</desc>
    <g id="Page-1" stroke="none" stroke-width="1" fill="none" fill-rule="evenodd">
        <g id="Group" transform="translate(-137.000000, 0.000000)">
            <g id="Group-2" transform="translate(137.000000, 0.000000)">
                <rect id="Rectangle" fill="#000000" x="0" y="0" width="206" height="84" rx="4"></rect>
                <g id="BIJ1" transform="translate(45.134000, 14.432000)" fill-rule="nonzero">
                    <path d="M-1.42108547e-14,50.084 L-1.42108547e-14,4.484 C-1.42108547e-14,1.292 2.052,7.10542736e-15 4.484,7.10542736e-15 L19.836,7.10542736e-15 C35.72,7.10542736e-15 42.332,4.864 42.332,13.832 C42.332,19 39.596,23.484 33.972,25.688 L33.972,25.84 C39.9,27.588 44.08,30.932 44.08,38.608 C44.08,51.224 32.68,54.568 20.064,54.568 L4.484,54.568 C2.052,54.568 -1.42108547e-14,53.276 -1.42108547e-14,50.084 Z M14.44,21.28 L20.672,21.28 C24.244,21.28 27.436,20.064 27.436,16.112 C27.436,12.616 24.396,11.856 20.216,11.856 L14.44,11.856 L14.44,21.28 Z M14.44,42.788 L20.52,42.788 C27.36,42.788 29.26,40.432 29.26,37.164 C29.26,32.756 25.384,31.844 21.128,31.844 L14.44,31.844 L14.44,42.788 Z M50.572,50.084 L50.572,4.484 C50.572,0.532 52.624,7.10542736e-15 55.056,7.10542736e-15 L60.908,7.10542736e-15 C63.34,7.10542736e-15 65.392,0.532 65.392,4.484 L65.392,50.084 C65.392,54.036 63.34,54.568 60.908,54.568 L55.056,54.568 C52.624,54.568 50.572,54.036 50.572,50.084 Z M70.668,49.932 C69.148,48.108 68.54,45.904 71.656,44.156 L76.9,41.192 C78.952,39.976 80.016,40.736 81.308,42.104 C82.068,42.94 83.056,43.472 84.348,43.472 C86.78,43.472 87.844,41.876 87.844,38.456 L87.844,4.484 C87.844,0.532 89.896,7.10542736e-15 92.328,7.10542736e-15 L98.256,7.10542736e-15 C100.688,7.10542736e-15 102.74,0.532 102.74,4.484 L102.74,35.568 C102.74,47.5 98.028,55.48 85.032,55.48 C79.94,55.48 74.924,54.644 70.668,49.932 Z" id="BIJ" fill="#FFFFFF"></path>
                    <path d="M115.084,50.084 L115.084,48.26 C115.084,45.828 115.616,43.776 119.568,43.776 L123.444,43.776 L123.444,12.312 L117.592,13.072 C113.868,13.528 113.336,12.388 113.336,10.108 L113.336,8.436 C113.336,5.852 114.324,4.484 117.44,3.496 L124.052,1.368 C126.484,0.608 127.928,-7.10542736e-15 130.512,-7.10542736e-15 L132.944,-7.10542736e-15 C135.376,-7.10542736e-15 137.352,0.456 137.352,4.408 L137.352,43.776 L141.684,43.776 C145.636,43.776 146.168,45.828 146.168,48.26 L146.168,50.084 C146.168,52.516 145.636,54.568 141.684,54.568 L119.568,54.568 C115.616,54.568 115.084,52.516 115.084,50.084 Z" id="1" fill="#FFFF00"></path>
                </g>
            </g>
        </g>
    </g>
</svg>